Coordinates
version=1
nRows=29
nColumns=24
inDegrees=yes

Units are S.I. units (second, meters, Newtons, ...)
Angles are in degrees.

endheader
time	pelvis_tilt	pelvis_list	pelvis_rotation	pelvis_tx	pelvis_ty	pelvis_tz	hip_flexion_r	hip_adduction_r	hip_rotation_r	knee_angle_r	ankle_angle_r	subtalar_angle_r	mtp_angle_r	hip_flexion_l	hip_adduction_l	hip_rotation_l	knee_angle_l	ankle_angle_l	subtalar_angle_l	mtp_angle_l	lumbar_extension	lumbar_bending	lumbar_rotation
      1.47000000	     16.01423029	     -1.96205082	      0.00945447	     -0.02532794	      0.94035323	      0.27435238	    -24.42506700	      5.46600840	      2.98792444	     -6.52163764	     22.47042175	      4.29614360	     15.21339516	     13.89419062	     -3.25547025	    -11.22563568	    -28.08835649	     17.13918685	      4.42207810	     38.68742025	    -32.25461721	      3.04712976	      7.21341371
      1.47500000	     16.14873877	     -1.94387305	     -0.13150526	     -0.01889527	      0.93970236	      0.27409190	    -25.06500299	      5.33654121	      2.98651783	     -6.42917723	     22.76609204	      4.63523625	     14.76967730	     13.43054691	     -3.08738939	    -11.70615508	    -25.75434052	     16.51296407	      4.89557427	     38.77318708	    -32.39374398	      2.94290546	      7.40122876
      1.48000000	     16.20168905	     -1.98929025	     -0.25668515	     -0.01244734	      0.93887939	      0.27377656	    -25.59008806	      5.27587315	      2.98429275	     -6.39105052	     23.03093698	      4.95760426	     14.53692650	     13.07857756	     -2.97468327	    -12.15515764	    -23.52711159	     15.88647603	      5.37840528	     38.80898588	    -32.43970028	      2.90489167	      7.66247007
      1.48500000	     16.28644131	     -2.01839129	     -0.32537923	     -0.00593702	      0.93801873	      0.27337082	    -26.18105573	      5.21891338	      2.95387378	     -6.29972209	     23.29618154	      5.23990186	     14.29977639	     12.69433096	     -2.82078680	    -12.54620556	    -21.37018333	     15.26817954	      5.88290932	     38.86033839	    -32.51588952	      2.89132131	      7.78725120
      1.49000000	     16.27362575	     -2.09525711	     -0.38143461	      0.00060004	      0.93696730	      0.27292734	    -26.65281778	      5.21473397	      2.95846125	     -6.23908534	     23.58536094	      5.51931165	     14.13843828	     12.45122982	     -2.71161892	    -12.90652533	    -19.36179623	     14.66552444	      6.38065866	     38.89633122	    -32.48471896	      2.93689227	      7.91459093
      1.49500000	     16.26530526	     -2.17946124	     -0.40705538	      0.00719683	      0.93588181	      0.27242606	    -27.12703588	      5.23042813	      2.90745675	     -6.19302159	     23.82110577	      5.76343443	     13.99251082	     12.21036052	     -2.59839516	    -13.21938069	    -17.45877117	     14.12531159	      6.90582395	     38.93922517	    -32.44832133	      2.99691830	      8.05621607
      1.50000000	     16.26871894	     -2.29577128	     -0.39765919	      0.01376898	      0.93475459	      0.27187213	    -27.60689610	      5.29259851	      2.84195851	     -6.16063424	     24.04070754	      6.01072734	     13.85805992	     11.99548232	     -2.51437974	    -13.49102269	    -15.71899008	     13.59250635	      7.42521962	     38.98790656	    -32.42983117	      3.10447347	      8.18924474
      1.50500000	     16.18527273	     -2.42275163	     -0.38383755	      0.02040359	      0.93347915	      0.27129376	    -27.98974028	      5.36668020	      2.80794408	     -6.14252816	     24.29202192	      6.24980076	     13.79767385	     11.90228926	     -2.43866578	    -13.71769627	    -14.14689536	     13.12888624	      7.90967313	     39.00466608	    -32.30969289	      3.22911063	      8.30678457
      1.51000000	     16.06225245	     -2.55386071	     -0.33366998	      0.02708430	      0.93212911	      0.27067105	    -28.32043904	      5.46560982	      2.73413391	     -6.14921561	     24.48748229	      6.41577115	     13.78876797	     11.88074228	     -2.36256873	    -13.86499436	    -12.74286926	     12.74727312	      8.37720522	     38.99776743	    -32.13837861	      3.37201254	      8.40894687
      1.51500000	     16.01687554	     -2.67713989	     -0.31203026	      0.03375472	      0.93088073	      0.27007292	    -28.73076914	      5.53494816	      2.67252389	     -6.16307454	     24.71990864	      6.71244044	     13.81589753	     11.78771871	     -2.28773583	    -14.04792504	    -11.49545424	     12.38607104	      8.82889692	     38.97875761	    -32.06034114	      3.49558651	      8.50995068
      1.52000000	     15.90203872	     -2.79163500	     -0.26079460	      0.04049495	      0.92953535	      0.26944581	    -29.05739042	      5.61616518	      2.58388576	     -6.20425783	     24.90599857	      6.90164008	     13.87289133	     11.79901706	     -2.20167009	    -14.13118773	    -10.42990336	     12.12288763	      9.21112354	     38.94557125	    -31.89488554	      3.61886914	      8.58696753
      1.52500000	     15.75972286	     -2.95301344	     -0.19185450	      0.04717039	      0.92814056	      0.26880492	    -29.35359273	      5.75151110	      2.61372072	     -6.23753505	     25.05958626	      6.99064713	     13.90861277	     11.88805810	     -2.17030123	    -14.09949982	     -9.57387055	     11.94323572	      9.47920209	     38.92538204	    -31.71005288	      3.80599506	      8.62614264
      1.53000000	     15.66977116	     -2.99655100	     -0.18261609	      0.05404343	      0.92689004	      0.26823507	    -29.67068876	      5.73713107	      2.41122796	     -6.36879734	     25.28787746	      7.39463041	     14.07902992	     11.89517564	     -2.03241053	    -14.20485012	     -8.84376646	     11.79187195	      9.81255855	     38.85469413	    -31.55824865	      3.82570077	      8.72279556
      1.53500000	     15.55500320	     -3.10114184	     -0.14612470	      0.06081238	      0.92559833	      0.26770160	    -29.98462571	      5.80450674	      2.44549543	     -6.43606928	     25.42014071	      7.47901576	     14.12978975	     11.98089827	     -1.96937569	    -14.13762001	     -8.32363326	     11.72762481	      9.97933414	     38.83518669	    -31.39763162	      3.92615017	      8.74515746
      1.54000000	     15.57693518	     -3.05365994	     -0.10028998	      0.06775272	      0.92453973	      0.26706292	    -30.42374503	      5.70946904	      2.13578909	     -6.56721171	     25.56614948	      7.94263445	     14.78693878	     11.88497020	     -1.73428752	    -14.07084614	     -7.89436505	     11.66299833	     10.08402867	     38.51750278	    -31.36304123	      3.87717292	      8.69613658
      1.54500000	     15.43275955	     -3.09392173	     -0.12273567	      0.07467096	      0.92331590	      0.26662693	    -30.64980840	      5.68386282	      2.07592150	     -6.76385134	     25.70853990	      8.18630810	     14.98260384	     12.02453217	     -1.63726740	    -14.00532006	     -7.70542437	     11.68659668	     10.15761878	     38.45458965	    -31.15236018	      3.86365453	      8.79454661
      1.55000000	     15.36249925	     -3.08037853	     -0.09893930	      0.08161092	      0.92220072	      0.26609054	    -30.94152791	      5.61798631	      1.88112511	     -6.99024252	     25.84800208	      8.57540915	     15.45845391	     12.09064332	     -1.47261293	    -13.78757179	     -7.64617088	     11.74139643	     10.05402559	     38.28921446	    -31.02664313	      3.83182451	      8.73932724
      1.55500000	     15.29333549	     -3.06456524	     -0.13966962	      0.08859918	      0.92115313	      0.26580060	    -31.25990833	      5.53816065	      1.92382948	     -7.16679192	     25.92094731	      8.63486023	     15.54043661	     12.18804899	     -1.35237942	    -13.66861631	     -7.79327278	     11.88039744	      9.98916054	     38.27983816	    -30.89802160	      3.73931888	      8.75954791
      1.56000000	     15.21275931	     -2.98731696	     -0.17045424	      0.09564170	      0.92015786	      0.26533026	    -31.47463396	      5.37674530	      1.65450086	     -7.53365438	     26.05332160	      9.18756938	     16.09306833	     12.27604345	     -1.14324022	    -13.37476030	     -8.00189071	     11.91289575	      9.61151680	     38.12925226	    -30.75028291	      3.59987402	      8.77035542
      1.56500000	     15.18364694	     -2.91455923	     -0.11383099	      0.10266227	      0.91922685	      0.26488548	    -31.80254381	      5.28386701	      1.52029801	     -7.76118079	     25.80937209	      9.22885104	     18.36858323	     12.37274318	     -0.95203559	    -12.98462323	     -8.42494807	     12.04464281	      9.27740334	     37.69524959	    -30.67043546	      3.51256386	      8.55231108
      1.57000000	     15.10867554	     -2.81566307	     -0.25278616	      0.10980484	      0.91837276	      0.26470791	    -32.00275602	      5.06052945	      1.46860912	     -8.17229634	     25.92042081	      9.58972077	     18.59157198	     12.47553075	     -0.78090299	    -12.79014767	     -8.90405022	     12.12192504	      8.91746820	     37.66229269	    -30.52493403	      3.26847492	      8.68320903
      1.57500000	     15.06416546	     -2.68418719	     -0.27927582	      0.11692964	      0.91755493	      0.26435312	    -32.21672142	      4.85674598	      1.25446497	     -8.61531463	     25.96609359	      9.99702329	     19.05966299	     12.58439073	     -0.55104419	    -12.39468206	     -9.51091778	     12.13757115	      8.35149631	     37.60285690	    -30.41807027	      3.05709125	      8.60643731
      1.58000000	     14.99982046	     -2.55166866	     -0.33748804	      0.12408801	      0.91678732	      0.26406058	    -32.37664497	      4.63770642	      1.09260982	     -9.11883713	     25.95606519	     10.35717442	     19.72591507	     12.72224421	     -0.33395267	    -11.99215767	    -10.21472284	     12.12975392	      7.72056165	     37.55049196	    -30.29153371	      2.82586377	      8.54425802
      1.58500000	     14.93036115	     -2.43581743	     -0.37048884	      0.13127913	      0.91605886	      0.26385620	    -32.53768691	      4.46604520	      1.02965671	     -9.58777381	     25.57441074	     10.35183825	     22.55274034	     12.90538653	     -0.15573937	    -11.59719424	    -11.06068018	     12.15372328	      7.19807451	     37.55869913	    -30.15999119	      2.61161045	      8.42900279
      1.59000000	     14.89325958	     -2.28929742	     -0.49172028	      0.13849307	      0.91546666	      0.26368795	    -32.64734715	      4.19916080	      0.90891017	    -10.24430589	     25.54853976	     10.74683189	     22.87218851	     13.02588891	      0.04426860	    -11.27774699	    -11.91970664	     12.07215455	      6.56931338	     37.51110444	    -30.06329258	      2.31481089	      8.47382525
      1.59500000	     14.78329275	     -2.14374487	     -0.48877356	      0.14574020	      0.91478611	      0.26342602	    -32.68130303	      4.01290854	      0.75505197	    -10.87781076	     25.22443287	     10.87306819	     25.02958207	     13.27317129	      0.26149389	    -10.78350756	    -12.89304689	     11.98535432	      5.85827462	     37.52245791	    -29.89082160	      2.09118025	      8.24065146
      1.60000000	     14.75779414	     -1.99641715	     -0.52494082	      0.15292147	      0.91427785	      0.26315541	    -32.71536333	      3.78722938	      0.53390344	    -11.69023866	     25.07886261	     11.26439074	     25.90959350	     13.41945866	      0.47409668	    -10.33143807	    -13.88185268	     11.83789134	      5.15278446	     37.46864031	    -29.81842605	      1.82560085	      8.18217872
      1.60500000	     14.64180559	     -1.86485313	     -0.63356259	      0.16020769	      0.91377769	      0.26306543	    -32.63076300	      3.55783200	      0.50627966	    -12.52050404	     24.64715205	     11.30280728	     28.30149159	     13.65680172	      0.63810522	    -10.00580562	    -14.90806291	     11.68904861	      4.49817687	     37.43873453	    -29.63849183	      1.53589549	      8.17865465
      1.61000000	     14.60054924	     -1.71991357	     -0.65678940	      0.16739626	      0.91337184	      0.26280386	    -32.54739707	      3.34065918	      0.27540022	    -13.50894069	     24.39946960	     11.67589369	     29.26564246	     13.82840507	      0.84069323	     -9.57423524	    -15.95684021	     11.49302589	      3.81598899	     37.34582525	    -29.55670968	      1.26950067	      8.10134684
